<?xml version="1.0" encoding="utf-8"?>
<!-- Svg Vector Icons : http://www.onlinewebfonts.com/icon -->
<!DOCTYPE svg PUBLIC "-//W3C//DTD SVG 1.1//EN" "http://www.w3.org/Graphics/SVG/1.1/DTD/svg11.dtd">
<svg version="1.1" xmlns="http://www.w3.org/2000/svg" xmlns:xlink="http://www.w3.org/1999/xlink" x="0px" y="0px" viewBox="0 0 1000 1000" enable-background="new 0 0 1000 1000" xml:space="preserve">
<metadata> Svg Vector Icons : http://www.onlinewebfonts.com/icon </metadata>
<g><path d="M500,10C229.4,10,10,229.4,10,500c0,270.6,219.4,490,490,490c270.6,0,490-219.4,490-490C990,229.4,770.6,10,500,10z M500,938.4C258.2,938.4,61.6,741.8,61.6,500S258.2,61.6,500,61.6S938.4,258.2,938.4,500S741.8,938.4,500,938.4z"/><path d="M551.6,396.9l51.6,25.8L500,757.9V500L396.8,396.9V242.1l-154.7,51.6v309.4L500,835.3l257.9-232.1V293.7l-206.3-77.4V396.9z"/></g>
</svg>