<?xml version="1.0" encoding="utf-8"?>
<!-- Svg Vector Icons : http://www.onlinewebfonts.com/icon -->
<!DOCTYPE svg PUBLIC "-//W3C//DTD SVG 1.1//EN" "http://www.w3.org/Graphics/SVG/1.1/DTD/svg11.dtd">
<svg version="1.1" xmlns="http://www.w3.org/2000/svg" xmlns:xlink="http://www.w3.org/1999/xlink" x="0px" y="0px" viewBox="0 0 1000 1000" enable-background="new 0 0 1000 1000" xml:space="preserve">
<metadata> Svg Vector Icons : http://www.onlinewebfonts.com/icon </metadata>
<g><g><g><path d="M956.3,547.8L451.5,43.6c-22.3-22.2-52.9-34.2-84.4-33.4L102,17c-46.9,1.2-84.7,39-85.8,85.9L10,367.7c-0.8,31.5,11.6,61.6,33.9,83.9l504.8,504.2c44.9,44.9,117.7,45.8,162.6,0.9l245.1-245.4C1001.2,666.4,1001.2,592.7,956.3,547.8z M190.2,318.7c-35.3-35.3-35.3-92.4-0.1-127.8c35.3-35.3,92.5-35.3,127.8-0.1c35.3,35.3,35.3,92.5,0.1,127.7C282.6,353.9,225.5,353.9,190.2,318.7z M360.6,473c-12.6-12.4-21.7-27.9-24.5-37.4l25.3-15.6c3.3,10,10.2,23.6,20.8,34.1c11.4,11.3,22.1,12.5,29.2,5.3c6.7-6.9,5.4-15.9-3.2-33.7c-12-24.4-13.9-46.2,1.9-62.2c18.5-18.8,48.3-17.7,74.3,7.9c12.4,12.3,18.9,23.9,22.6,33.3l-25.3,14.6c-2.3-6.4-7.1-17.3-17.9-27.9c-10.8-10.6-20.8-10.9-26.4-5.1c-6.9,7-3.8,16.2,5.1,35.6c12.3,26.4,11.4,45.5-3.8,61C420.5,501.1,390.8,502.8,360.6,473z M480.9,588.5l19.4-36.6l-31.5-31.1l-35.7,20.5l-25.8-25.5L549.5,439l32.6,32.2l-74.5,143.6L480.9,588.5z M514.3,621.4l108.5-110l25,24.7l-88,89l43.7,43.2L583,689.2L514.3,621.4z M745.8,673.1l-42.9-42.3l-22.6,22.8l40.5,40l-20,20.3l-40.4-40l-25.7,26.1l45.2,44.7L659.7,765l-70.2-69.2l108.6-109.9l67.8,67L745.8,673.1z"/><path d="M490.8,505.8l24.3,24l31.2-57.1C538.3,477.5,490.8,505.8,490.8,505.8z"/></g></g><g></g><g></g><g></g><g></g><g></g><g></g><g></g><g></g><g></g><g></g><g></g><g></g><g></g><g></g><g></g></g>
</svg>